<svg xmlns="http://www.w3.org/2000/svg" xml:space="preserve" style="fill-rule:evenodd;clip-rule:evenodd;stroke-linejoin:round;stroke-miterlimit:1.41421" viewBox="0 0 48 48"><path d="M3.75 35.69V12.76a3.03 3.03 0 0 1 3.02-3.03h34.65a3.03 3.03 0 0 1 3.03 3.03V35.7a3.03 3.03 0 0 1-3.03 3.03H6.77a3.03 3.03 0 0 1-3.02-3.03Zm38.78 0V12.76c0-.6-.5-1.11-1.11-1.11H6.77c-.61 0-1.1.5-1.1 1.11V35.7c0 .61.49 1.11 1.1 1.11h34.65c.61 0 1.11-.5 1.11-1.11Z"/><path d="M7.1 13.57c0-.5.42-.92.93-.92a.92.92 0 0 1 0 1.84.92.92 0 0 1-.92-.92Zm2.6 0c0-.5.42-.92.93-.92a.92.92 0 1 1-.92.92Zm2.6 0c0-.5.42-.92.92-.92s.92.42.92.92-.41.92-.92.92a.92.92 0 0 1-.91-.92ZM7.9 33.67c0-.29.23-.53.53-.53h31.34c.29 0 .53.24.53.53 0 .3-.24.54-.53.54H8.43a.53.53 0 0 1-.54-.54Z"/><path d="M12.78 31.39a2.16 2.16 0 0 1 0 4.3 2.16 2.16 0 0 1 0-4.3ZM28.71 24.38l-7.03 4.06c-.58.34-1.05.06-1.05-.6V19.7c0-.67.47-.94 1.05-.6l7.03 4.05c.58.34.58.89 0 1.22Z"/></svg>