<svg xmlns="http://www.w3.org/2000/svg" fill="none" viewBox="0 0 24 24"><path fill="#000" d="M10.9 8.3a.8.8 0 0 1-.6-.3l-2-2-2 2a.8.8 0 0 1-1 0 .7.7 0 0 1 0-1l2.5-2.5a.8.8 0 0 1 1.1 0L11.4 7a.7.7 0 0 1 0 1c-.1.2-.3.3-.5.3Z"/><path fill="#000" d="M8.4 19.8a.8.8 0 0 1-.8-.8V5a.8.8 0 0 1 .8-.8.8.8 0 0 1 .7.8v14a.7.7 0 0 1-.7.8Zm8.7-.6a.8.8 0 0 1-.7-.7v-4l-.4.2a.8.8 0 0 1-.7-1.4l.6-.3a1.2 1.2 0 0 1 1.2-.1A1.3 1.3 0 0 1 18 14v4.5a.8.8 0 0 1-.8.7Zm-.5-10a2.2 2.2 0 1 1 0-4.4 2.2 2.2 0 0 1 0 4.4Zm0-3a.7.7 0 1 0 0 1.5.7.7 0 0 0 0-1.5Z"/><path fill="#000" d="M16.1 11.3h-.5a.7.7 0 1 1 0-1.6h.5a1.3 1.3 0 0 0 1.3-1.1V7a.8.8 0 0 1 .7-.8.8.8 0 0 1 .8.8v1.6a2.8 2.8 0 0 1-2.8 2.7Z"/></svg>