<svg xmlns="http://www.w3.org/2000/svg" fill="none" viewBox="0 0 24 24"><path fill="#000" d="m8.8 4.5-.3-.2H8l-.3.2L5.2 7c-.3.3-.3.7 0 1 .3.3.8.3 1 0l1.3-1.2V19c0 .4.3.8.8.8.4 0 .7-.4.7-.8V6.8L10.2 8l.6.3.5-.3c.3-.3.3-.7 0-1L8.8 4.5ZM19 18.3l-1.8-4.8a1 1 0 0 0-1-.8 1 1 0 0 0-1 .8l-1.6 4.8a.7.7 0 1 0 1.4.5l.2-.8h2l.4.8a.8.8 0 0 0 1 .4c.3-.1.5-.6.4-1Zm-3.2-1.8.4-1.4.5 1.4h-1Zm-2-6c.2.5.6.8 1 .8H18c.4 0 .8-.4.8-.8s-.4-.7-.8-.7h-2.4l2.8-3c.4-.3.5-.9.3-1.3a1 1 0 0 0-1-.7h-3.2c-.4 0-.7.3-.7.7 0 .4.3.8.7.8H17l-2.8 3c-.4.3-.4.8-.3 1.3Z"/></svg>