<svg xmlns="http://www.w3.org/2000/svg" fill="none" viewBox="0 0 24 24"><path fill="#000" d="M10.2 16 9 17.2V5c0-.4-.3-.8-.8-.8-.4 0-.7.4-.7.8v12.2L6.3 16a.8.8 0 0 0-1 0c-.4.3-.4.7 0 1l2.4 2.5a.8.8 0 0 0 .5.3l.3-.1.3-.2 2.5-2.5c.3-.3.3-.7 0-1a.8.8 0 0 0-1 0Zm3.8-4.8c.4.2.8 0 1-.4l.2-.8h2l.4.8a.8.8 0 0 0 1 .4c.3-.1.5-.5.4-1l-1.8-4.7a1 1 0 0 0-1-.7 1 1 0 0 0-1 .7l-1.6 4.8c-.2.3 0 .8.4 1Zm2.7-2.7h-1l.6-1.4.4 1.4Zm2 5c-.2-.5-.6-.8-1-.8h-3.2c-.4 0-.7.4-.7.8s.3.8.7.8H17l-2.8 2.9c-.4.4-.5.9-.3 1.3.2.5.6.8 1 .8H18c.4 0 .8-.4.8-.8s-.4-.8-.8-.8h-2.4l2.8-2.9c.4-.3.5-.9.3-1.3Z"/></svg>