<svg xmlns="http://www.w3.org/2000/svg" fill="none" viewBox="0 0 24 24"><path fill="#000" d="M8.4 19.8a.8.8 0 0 1-.6-.3L5.3 17a.8.8 0 0 1 0-1 .8.8 0 0 1 1.1 0l2 2 2-2a.8.8 0 0 1 1 0 .7.7 0 0 1 0 1L9 19.5a.7.7 0 0 1-.6.3Z"/><path fill="#000" d="M8.4 19.8a.8.8 0 0 1-.8-.8V5a.8.8 0 0 1 .8-.8.8.8 0 0 1 .7.8v14a.7.7 0 0 1-.7.8Zm8.7-8.5a.8.8 0 0 1-.7-.8v-4l-.4.2a.8.8 0 1 1-.7-1.4l.6-.3a1.2 1.2 0 0 1 1.2-.1A1.3 1.3 0 0 1 18 6v4.4a.8.8 0 0 1-.8.8Zm-.5 6a2.2 2.2 0 1 1 0-4.5 2.2 2.2 0 0 1 0 4.4Zm0-3a.8.8 0 1 0 0 1.5.8.8 0 0 0 0-1.6Z"/><path fill="#000" d="M16.1 19.3h-.5a.7.7 0 1 1 0-1.6h.5a1.3 1.3 0 0 0 1.3-1.1V15a.7.7 0 0 1 .7-.8.8.8 0 0 1 .8.8v1.6a2.8 2.8 0 0 1-2.8 2.6Z"/></svg>