<svg xmlns="http://www.w3.org/2000/svg" xmlns:xlink="http://www.w3.org/1999/xlink" viewBox="0 0 880 880"><defs><clipPath id="a" clipPathUnits="userSpaceOnUse"><path d="M-262.33 289.03h660v-660h-660Z"/></clipPath><clipPath id="b" clipPathUnits="userSpaceOnUse"/><clipPath id="c" clipPathUnits="userSpaceOnUse"><use xlink:href="#reuse-0"/></clipPath><clipPath id="d" clipPathUnits="userSpaceOnUse"><use xlink:href="#reuse-0"/></clipPath><clipPath id="e" clipPathUnits="userSpaceOnUse"><path d="M.42 660.81h660V.81H.42Z"/></clipPath><clipPath id="f" clipPathUnits="userSpaceOnUse"><path d="M-27.64 660.81h660V.81h-660Z"/></clipPath><clipPath id="g" clipPathUnits="userSpaceOnUse"><path d="M-316.03 660.81h660V.81h-660Z"/></clipPath><clipPath id="h" clipPathUnits="userSpaceOnUse"><path d="M-272.36 453.33h660v-660h-660Z"/></clipPath><clipPath id="i" clipPathUnits="userSpaceOnUse"><path d="M-277.24 453.33h660v-660h-660Z"/></clipPath><clipPath id="j" clipPathUnits="userSpaceOnUse"><path d="M-327.98 453.33h660v-660h-660Z"/></clipPath><clipPath id="k" clipPathUnits="userSpaceOnUse"><path d="M-299.56 346.73h660v-660h-660Z"/></clipPath><clipPath id="l" clipPathUnits="userSpaceOnUse"><path d="M-302.14 346.73h660v-660h-660Z"/></clipPath><clipPath id="m" clipPathUnits="userSpaceOnUse"><path d="M-328.96 346.73h660v-660h-660Z"/></clipPath><clipPath id="n" clipPathUnits="userSpaceOnUse"><path d="M-366.5 289.03h660v-660h-660Z"/></clipPath><clipPath id="o" clipPathUnits="userSpaceOnUse"><path d="M-330.06 237.55h660v-660h-660Z"/></clipPath><clipPath id="p" clipPathUnits="userSpaceOnUse"><path d="M-441.53 94.11h660v-660h-660Z"/></clipPath><clipPath id="q" clipPathUnits="userSpaceOnUse"><path d="M-188.45 164.08h660v-660h-660Z"/></clipPath><clipPath id="r" clipPathUnits="userSpaceOnUse"><path d="M-82.2 74.78h660v-660h-660Z"/></clipPath><clipPath id="s" clipPathUnits="userSpaceOnUse"><path d="M-523.1 47.34h660v-660h-660Z"/></clipPath><clipPath id="t" clipPathUnits="userSpaceOnUse"><path d="M-19 182.83h660v-660H-19Z"/></clipPath><clipPath id="u" clipPathUnits="userSpaceOnUse"><path d="M-596.4 184.16h660v-660h-660Z"/></clipPath><path id="reuse-0" d="M0 660h660V0H0Z"/></defs><path fill="#d7a220" d="M0 880h880V0H0Z"/><path fill="#f6f8b6" d="M0 385.37h880V0H0Z"/><path fill="#fdfde0" d="M0 61.7h880v-2.6H0ZM0 239.96h880v-2.6H0ZM0 275.1h880v-2.6H0ZM0 290.06h880v-2.6H0Z"/><path fill="#f9bd66" fill-rule="evenodd" d="M0 0h-262.74v37.08l17.07 11.46c55.12 37 118.22 37 173.34 0z" clip-path="url(#a)" transform="matrix(1.33 0 0 -1.33 349.77 385.37)"/><path fill="#f9bd66" fill-rule="evenodd" d="M0 0v-38.33h-277.21l71.05 41.02c64.08 37 137.42 37 201.5 0z" clip-path="url(#b)" transform="matrix(1.33 0 0 -1.33 880.71 334.27)"/><path fill="#e3ac27" fill-rule="evenodd" d="M-.42 313.28h660.96v57.69H-.42Z" clip-path="url(#c)" transform="matrix(1.33 0 0 -1.33 0 880)"/><path fill="#ca9619" fill-rule="evenodd" d="M-.42-.81h660.96v207.48H-.42Z" clip-path="url(#d)" transform="matrix(1.33 0 0 -1.33 0 880)"/><path fill="#deee85" fill-rule="evenodd" d="M0 0c56.75 57.22 141.87 56.15 198.88 102.45 40.05 32.53 55.42 105.03 66.1 105.03h131c10.68 0 26.04-72.5 66.1-105.03 57-46.3 142.13-45.23 198.88-102.45Z" clip-path="url(#e)" transform="matrix(1.33 0 0 -1.33 -.56 881.08)"/><path fill="#394019" fill-rule="evenodd" d="M0 0c51.93 57.22 129.83 56.15 181.99 102.45 36.66 32.53 50.71 105.03 60.48 105.03h119.89c9.77 0 23.83-72.5 60.49-105.03C475 56.15 552.9 57.22 604.83 0Z" clip-path="url(#f)" transform="matrix(1.33 0 0 -1.33 36.86 881.08)"/><path fill="#f39c0f" fill-rule="evenodd" d="M0 0c2.41 57.22 6.02 56.15 8.44 102.45 1.7 32.53 2.36 105.03 2.81 105.03h5.56c.46 0 1.1-72.5 2.81-105.03C22.04 56.15 25.65 57.22 28.06 0Z" clip-path="url(#g)" transform="matrix(1.33 0 0 -1.33 421.37 881.08)"/><path fill="#eaf4a2" fill-rule="evenodd" d="M0 0c10.2 30.51 11.7 106.6 20 106.6h75.4c8.3 0 9.81-76.09 20-106.6z" clip-path="url(#h)" transform="matrix(1.33 0 0 -1.33 363.14 604.44)"/><path fill="#49522a" fill-rule="evenodd" d="M0 0c9.33 30.51 10.7 106.6 18.32 106.6h69.01c7.6 0 8.99-76.09 18.32-106.6z" clip-path="url(#i)" transform="matrix(1.33 0 0 -1.33 369.65 604.44)"/><path fill="#faba38" fill-rule="evenodd" d="M0 0c.37 30.51.42 106.6.72 106.6h2.7c.3 0 .36-76.09.73-106.6Z" clip-path="url(#j)" transform="matrix(1.33 0 0 -1.33 437.31 604.44)"/><path fill="#f6f9c8" fill-rule="evenodd" d="M0 0c5.39 16.51 6.18 57.7 10.58 57.7h39.84C54.82 57.7 55.61 16.5 61 0z" clip-path="url(#k)" transform="matrix(1.33 0 0 -1.33 399.41 462.3)"/><path fill="#768352" fill-rule="evenodd" d="M0 0c4.93 16.51 5.66 57.7 9.68 57.7h36.48c4.02 0 4.75-41.19 9.68-57.7z" clip-path="url(#l)" transform="matrix(1.33 0 0 -1.33 402.85 462.3)"/><path fill="#fccf6a" fill-rule="evenodd" d="M0 0c.2 16.51.22 57.7.38 57.7h1.43C1.97 57.7 2 16.5 2.2 0Z" clip-path="url(#m)" transform="matrix(1.33 0 0 -1.33 438.62 462.3)"/><path fill="#c68132" fill-rule="evenodd" d="m0 0 26.43 15.26C46.3 26.72 67.3 29.78 89.6 24.45c16.3-3.9 33.3-1.57 48.78 6.99 22.57 12.47 46.7 14.69 71.17 6.54 27.18-9.06 56.17-6.08 82.15 8.92l2.33 1.34V0Zm-366.92 22.93.88-.51c13.82-7.98 29.48-8.3 43.6-.87 37 19.43 78.67 18.57 115.27-2.55l.7-.4c12.6-7.28 25.9-9.3 40.1-6.12 9.22 2.07 18.8.6 27.5-4.43L-124.92 0h-242z" clip-path="url(#n)" transform="matrix(1.33 0 0 -1.33 488.67 385.37)"/><path fill="#f9bd66" fill-rule="evenodd" d="M0 0c50.26 0 91.25 41 91.25 91.25S50.25 182.5 0 182.5s-91.25-41-91.25-91.25S-50.25 0 0 0" clip-path="url(#o)" transform="matrix(1.33 0 0 -1.33 440.08 316.74)"/><path fill="#fff" fill-rule="evenodd" d="M0 0c1.9 0 3.71-.42 5.33-1.18A24.37 24.37 0 0 0 44.95 3.8 22 22 0 0 0 59.8 9.55c6.58 0 12.49-2.88 16.54-7.44a24 24 0 0 0 19.14 9.45c7.08 0 13.45-3.05 17.86-7.9a16.87 16.87 0 0 0 21.21-14.09l20.5-2.14-20.5-2.13a16.84 16.84 0 0 0-21.21-14.09 24 24 0 0 0-17.86-7.9c-7.8 0-14.73 3.7-19.14 9.45a22 22 0 0 0-16.54-7.44 22 22 0 0 0-14.86 5.74 24.37 24.37 0 0 0-39.62 5 12.57 12.57 0 0 0-17.71 9.24l-20.54 2.13 20.54 2.15A12.6 12.6 0 0 0 0 0" clip-path="url(#p)" transform="matrix(1.33 0 0 -1.33 588.7 125.49)"/><path fill="#fff" fill-rule="evenodd" d="M0 0c3.94 0 7.54-1.43 10.31-3.8a22.97 22.97 0 0 0 38.16 1.4A14.17 14.17 0 0 0 66.8-13.45l16.53-2.46-16.53-2.45a14.18 14.18 0 0 0-18.34-11.03 22.97 22.97 0 0 0-38.16 1.4 15.9 15.9 0 0 0-26.02 9.64l-16.51 2.44 16.51 2.46A15.9 15.9 0 0 0 0 0" clip-path="url(#q)" transform="matrix(1.33 0 0 -1.33 251.27 218.77)"/><path fill="#fff" fill-rule="evenodd" d="M0 0c5.13 0 9.72-2.26 12.85-5.84a23.08 23.08 0 0 0 39.49 1.47q.82.1 1.66.1c3.23 0 6.18-1.2 8.43-3.17a14.04 14.04 0 0 0 24.07-7.38l16.53-2.23L86.5-19.3a14.04 14.04 0 0 0-24.08-7.38 12.7 12.7 0 0 0-10.1-3.06 23.08 23.08 0 0 0-39.49 1.47 17.05 17.05 0 0 0-29.76 8.98l-16.48 2.23 16.5 2.23A17.05 17.05 0 0 0 0 0" clip-path="url(#r)" transform="matrix(1.33 0 0 -1.33 109.6 99.7)"/><path fill="#fff" fill-rule="evenodd" d="M0 0a8.5 8.5 0 0 0 6.43-2.92 11.54 11.54 0 0 0 19.74.74 6.5 6.5 0 0 0 5.05-1.54A7.02 7.02 0 0 0 43.26-7.4l8.25-1.12-8.26-1.12a7.02 7.02 0 0 0-12.03-3.68 6.4 6.4 0 0 0-5.05-1.54 11.54 11.54 0 0 0-19.74.74A8.53 8.53 0 0 0-8.45-9.64l-8.25 1.11 8.25 1.12A8.5 8.5 0 0 0 0 0" clip-path="url(#s)" transform="matrix(1.33 0 0 -1.33 697.47 63.12)"/><path fill="#fff" fill-rule="evenodd" d="M0 0q1.12 0 2.07-.46a9.45 9.45 0 0 0 15.36 1.94A8.54 8.54 0 0 0 29.6.82a9.34 9.34 0 0 0 14.35.6 6.53 6.53 0 0 0 8.22-5.46l7.95-.83-7.95-.83a6.53 6.53 0 0 0-8.22-5.46 9.33 9.33 0 0 0-14.35.6 8.55 8.55 0 0 0-12.17-.66A9.43 9.43 0 0 0 2.07-9.28 4.87 4.87 0 0 0-4.8-5.7l-7.96.83 7.96.83C-4.4-1.74-2.4 0 0 0" clip-path="url(#t)" transform="matrix(1.33 0 0 -1.33 25.33 243.78)"/><path fill="#fff" fill-rule="evenodd" d="M0 0c2.32 0 4.45-.84 6.09-2.24a13.56 13.56 0 0 0 22.51.82 8.35 8.35 0 0 0 10.83-6.51l9.76-1.45-9.76-1.45a8.37 8.37 0 0 0-10.83-6.51 13.54 13.54 0 0 0-22.51.82 9.38 9.38 0 0 0-15.35 5.69l-9.76 1.45 9.75 1.45A9.4 9.4 0 0 0 0 0" clip-path="url(#u)" transform="matrix(1.33 0 0 -1.33 795.19 245.54)"/></svg>